<mxfile host="65bd71144e">
    <diagram id="tj390D6eof4VTrJQb1tH" name="Page-1">
        <mxGraphModel dx="807" dy="652" grid="1" gridSize="10" guides="1" tooltips="1" connect="1" arrows="1" fold="1" page="1" pageScale="1" pageWidth="827" pageHeight="1169" math="0" shadow="0">
            <root>
                <mxCell id="0"/>
                <mxCell id="1" parent="0"/>
                <mxCell id="2" value="&lt;b&gt;Wordpress Server&lt;/b&gt;" style="rounded=0;whiteSpace=wrap;html=1;fillColor=#dae8fc;strokeColor=#6c8ebf;align=left;verticalAlign=top;" vertex="1" parent="1">
                    <mxGeometry x="40" y="160" width="410" height="350" as="geometry"/>
                </mxCell>
                <mxCell id="6" value="Processes" style="rounded=0;whiteSpace=wrap;html=1;align=left;verticalAlign=top;fillColor=#f8cecc;strokeColor=#b85450;" vertex="1" parent="1">
                    <mxGeometry x="50" y="190" width="170" height="300" as="geometry"/>
                </mxCell>
                <mxCell id="3" value="Wordpress" style="rounded=0;whiteSpace=wrap;html=1;align=left;verticalAlign=top;" vertex="1" parent="1">
                    <mxGeometry x="70" y="216" width="120" height="60" as="geometry"/>
                </mxCell>
                <mxCell id="7" value="Directories" style="rounded=0;whiteSpace=wrap;html=1;align=left;verticalAlign=top;fillColor=#d5e8d4;strokeColor=#82b366;" vertex="1" parent="1">
                    <mxGeometry x="230" y="191" width="160" height="179" as="geometry"/>
                </mxCell>
                <mxCell id="8" value="Wordpress files" style="rounded=0;whiteSpace=wrap;html=1;align=left;verticalAlign=top;" vertex="1" parent="1">
                    <mxGeometry x="250" y="217" width="120" height="60" as="geometry"/>
                </mxCell>
                <mxCell id="9" value="backup" style="rounded=0;whiteSpace=wrap;html=1;align=left;verticalAlign=top;" vertex="1" parent="1">
                    <mxGeometry x="250" y="287" width="120" height="60" as="geometry"/>
                </mxCell>
                <mxCell id="11" value="&lt;b&gt;GitLab&lt;/b&gt;" style="rounded=0;whiteSpace=wrap;html=1;fillColor=#dae8fc;strokeColor=#6c8ebf;align=left;verticalAlign=top;" vertex="1" parent="1">
                    <mxGeometry x="520" y="160" width="200" height="300" as="geometry"/>
                </mxCell>
                <mxCell id="12" value="Repositories" style="rounded=0;whiteSpace=wrap;html=1;align=left;verticalAlign=top;fillColor=#fff2cc;strokeColor=#d6b656;" vertex="1" parent="1">
                    <mxGeometry x="530" y="185" width="160" height="115" as="geometry"/>
                </mxCell>
                <mxCell id="13" value="wordpress_backup" style="rounded=0;whiteSpace=wrap;html=1;align=left;verticalAlign=top;" vertex="1" parent="1">
                    <mxGeometry x="550" y="211" width="120" height="60" as="geometry"/>
                </mxCell>
                <mxCell id="15" value="backup.sh" style="rounded=0;whiteSpace=wrap;html=1;align=left;verticalAlign=top;" vertex="1" parent="1">
                    <mxGeometry x="70" y="287" width="140" height="183" as="geometry"/>
                </mxCell>
                <mxCell id="4" value="prep_backup.sh" style="rounded=0;whiteSpace=wrap;html=1;align=left;verticalAlign=top;" vertex="1" parent="1">
                    <mxGeometry x="80" y="316.5" width="120" height="60" as="geometry"/>
                </mxCell>
                <mxCell id="5" value="push_backup.sh" style="rounded=0;whiteSpace=wrap;html=1;align=left;verticalAlign=top;" vertex="1" parent="1">
                    <mxGeometry x="80" y="386.5" width="120" height="60" as="geometry"/>
                </mxCell>
            </root>
        </mxGraphModel>
    </diagram>
</mxfile>